<svg xmlns="http://www.w3.org/2000/svg" viewBox="0 0 640 640" fill="#FFF"><path d="M88 136c-13.3 0-24 10.7-24 24s10.7 24 24 24h91.7c10.2 32.5 40.5 56 76.3 56s66.1-23.5 76.3-56H552c13.3 0 24-10.7 24-24s-10.7-24-24-24H332.3c-10.2-32.5-40.5-56-76.3-56s-66.1 23.5-76.3 56zm0 160c-13.3 0-24 10.7-24 24s10.7 24 24 24h251.7c10.2 32.5 40.5 56 76.3 56s66.1-23.5 76.3-56H552c13.3 0 24-10.7 24-24s-10.7-24-24-24h-59.7c-10.2-32.5-40.5-56-76.3-56s-66.1 23.5-76.3 56zm0 160c-13.3 0-24 10.7-24 24s10.7 24 24 24h59.7c10.2 32.5 40.5 56 76.3 56s66.1-23.5 76.3-56H552c13.3 0 24-10.7 24-24s-10.7-24-24-24H300.3c-10.2-32.5-40.5-56-76.3-56s-66.1 23.5-76.3 56zm136 56c-17.7 0-32-14.3-32-32s14.3-32 32-32 32 14.3 32 32-14.3 32-32 32m192-160c-17.7 0-32-14.3-32-32s14.3-32 32-32 32 14.3 32 32-14.3 32-32 32M224 160c0-17.7 14.3-32 32-32s32 14.3 32 32-14.3 32-32 32-32-14.3-32-32"/></svg>